<svg width="86" height="87" viewBox="0 0 86 87" fill="none" xmlns="http://www.w3.org/2000/svg">
<circle cx="43" cy="43.4351" r="43" fill="black"/>
<path d="M45.4797 58.8493H35.6951L39.113 36.8049C39.5151 34.3754 39.0013 33.1208 37.5716 33.0412C36.9908 33.0014 36.2536 33.1009 35.36 33.3399C34.4665 33.539 33.6399 33.8576 32.8804 34.2957L29.0604 58.8493H19.2759L22.6267 37.2828C22.8501 35.7295 22.8055 34.5148 22.4927 33.6386C22.18 32.7624 21.5768 32.0853 20.6832 31.6074V31.4282C22.1576 31.3883 23.7214 31.1693 25.3745 30.771C27.0276 30.3329 28.6136 29.7753 30.1327 29.0983C31.6517 28.3814 32.8804 27.6247 33.8186 26.8281H34.0197L33.4836 30.2334C33.4389 30.7909 33.3495 31.3684 33.2155 31.9658C33.0815 32.5234 32.9698 32.9615 32.8804 33.2801L33.0144 33.3399C33.908 32.5035 35.025 31.6074 36.3653 30.6515C37.7503 29.6957 39.18 28.8792 40.6544 28.2022C42.1735 27.5251 43.5362 27.1866 44.7425 27.1866C46.5743 27.1866 47.8923 27.7442 48.6965 28.8593C49.5007 29.9745 49.7464 31.4282 49.4337 33.2204V33.2801L49.5677 33.3399C50.4613 32.5035 51.5782 31.6074 52.9186 30.6515C54.3036 29.6957 55.7333 28.8792 57.2077 28.2022C58.6821 27.5251 60.0224 27.1866 61.2287 27.1866C63.0605 27.2264 64.3562 27.8238 65.1157 28.9788C65.8753 30.094 66.121 31.5875 65.8529 33.4594L62.7031 53.5921C62.5691 54.5877 62.7031 55.3644 63.1052 55.9219C63.5073 56.4397 64.0211 56.6986 64.6466 56.6986C65.3168 56.6986 66.0093 56.4994 66.7242 56.1012V56.5791C65.7859 57.5748 64.4902 58.3514 62.8372 58.909C61.2287 59.4666 59.7097 59.7454 58.28 59.7454C56.6269 59.7454 55.2195 59.3471 54.0579 58.5505C52.9409 57.7142 52.5388 56.2605 52.8516 54.1895L55.5323 36.8049C55.8897 34.2957 55.4206 33.0412 54.1249 33.0412C53.5441 33.0412 52.7845 33.1607 51.8463 33.3996C50.9527 33.5988 50.1039 33.9174 49.2996 34.3555L45.4797 58.8493Z" fill="white"/>
</svg>
