<svg width="191" height="52" viewBox="0 0 191 52" fill="none" xmlns="http://www.w3.org/2000/svg">
<path d="M21.6906 40.9999H14.4774L17.4236 22.1032C17.7623 20.0035 17.2204 18.9368 15.7981 18.9029C15.1547 18.9029 14.3588 19.1908 13.4106 19.7665C12.4963 20.3422 11.565 21.2227 10.6167 22.408L7.77207 40.9999H0.507996L3.30187 22.9667C3.53893 21.6121 3.50506 20.5792 3.20027 19.8681C2.92935 19.123 2.35365 18.5643 1.47315 18.1917L1.52395 17.6838C2.67536 17.616 3.86064 17.3959 5.07979 17.0234C6.3328 16.6509 7.51808 16.1768 8.63563 15.6011C9.75318 15.0254 10.7014 14.4158 11.4803 13.7723H12.0391L11.3279 17.9378C11.1924 19.0214 11.0231 19.885 10.8199 20.5284L10.9215 20.5792C11.7004 19.4617 12.6656 18.4119 13.817 17.4298C14.9684 16.4138 16.1537 15.6011 17.3728 14.9915C18.6258 14.3819 19.7773 14.0771 20.8271 14.0771C22.4187 14.0771 23.5702 14.5851 24.2813 15.6011C25.0264 16.617 25.2634 17.9378 24.9925 19.5633L24.8401 20.5792H24.8909C25.6359 19.4617 26.5842 18.4119 27.7356 17.4298C28.9208 16.4138 30.1231 15.6011 31.3422 14.9915C32.5952 14.3819 33.7466 14.0771 34.7964 14.0771C36.3881 14.0771 37.5395 14.602 38.2507 15.6519C38.9619 16.6678 39.1989 18.0055 38.9619 19.6649L36.3712 36.0217C36.2357 36.9361 36.3204 37.6473 36.6252 38.1552C36.93 38.6294 37.3533 38.8664 37.8951 38.8664C38.1999 38.8664 38.5385 38.8156 38.9111 38.714C39.2836 38.6124 39.6561 38.4262 40.0286 38.1552L40.2318 38.8156C39.4529 39.73 38.3861 40.4411 37.0315 40.9491C35.7108 41.4571 34.4578 41.7111 33.2725 41.7111C31.9856 41.7111 30.885 41.3386 29.9707 40.5935C29.0563 39.8146 28.7515 38.477 29.0563 36.5805L31.2914 22.3572C31.6301 20.0543 31.1221 18.9029 29.7675 18.9029C29.124 18.9029 28.3282 19.1908 27.38 19.7665C26.4318 20.3422 25.4835 21.2227 24.5353 22.408L21.6906 40.9999Z" fill="black"/>
<path d="M40.5382 29.8244C40.843 27.7248 41.4525 25.7437 42.3669 23.8811C43.2812 21.9846 44.4157 20.3083 45.7703 18.8521C47.1588 17.3621 48.7166 16.2106 50.4437 15.3979C52.1708 14.5512 53.9996 14.1279 55.9299 14.1279C57.3522 14.1279 58.5036 14.365 59.3841 14.8391C60.2646 15.3132 60.9419 15.9058 61.416 16.617C61.924 17.3282 62.2965 18.0224 62.5336 18.6997L65.7846 14.3311H66.5466L63.1432 36.0217C63.0077 36.9361 63.0924 37.6473 63.3971 38.1552C63.7019 38.6294 64.1252 38.8664 64.6671 38.8664C65.3783 38.8664 66.0894 38.6294 66.8006 38.1552L67.0038 38.8156C66.2249 39.73 65.1751 40.4411 63.8543 40.9491C62.5674 41.4571 61.3144 41.7111 60.0953 41.7111C59.2487 41.7111 58.4698 41.5418 57.7586 41.2031C57.0474 40.8983 56.5056 40.3734 56.1331 39.6284C55.7606 38.8833 55.6759 37.8674 55.8791 36.5805C55.8791 36.5805 55.896 36.5467 55.9299 36.4789H55.8791C55.134 37.3933 54.2705 38.2568 53.2884 39.0696C52.3063 39.8485 51.2565 40.4919 50.1389 40.9999C49.0553 41.474 47.9716 41.7111 46.8879 41.7111C45.2962 41.7111 43.9586 41.1862 42.8749 40.1364C41.825 39.0527 41.08 37.6134 40.6398 35.8186C40.1995 34.0237 40.1657 32.0257 40.5382 29.8244ZM51.9169 37.1393C53.2037 37.1393 54.5583 36.5297 55.9807 35.3106L58.419 19.5633C58.5883 18.5473 58.4528 17.7007 58.0126 17.0234C57.6062 16.3461 56.9797 16.0074 56.1331 16.0074C54.9817 16.0074 53.881 16.5324 52.8312 17.5822C51.7814 18.632 50.867 20.0205 50.0881 21.7476C49.3092 23.4408 48.7674 25.2865 48.4626 27.2845C47.9546 30.5356 48.0224 32.9908 48.6658 34.6502C49.3092 36.3096 50.3929 37.1393 51.9169 37.1393Z" fill="black"/>
<path d="M74.8473 51.9214C73.4927 51.9214 72.1042 51.8198 70.6819 51.6166C69.2934 51.4473 68.0404 51.1425 66.9228 50.7023C65.7714 50.2959 64.874 49.7371 64.2305 49.026C63.5871 48.3148 63.3501 47.4174 63.5194 46.3337C63.6548 45.487 64.1797 44.7082 65.0941 43.997C66.0085 43.3197 67.1768 42.7101 68.5991 42.1683C70.0553 41.6603 71.6301 41.2708 73.3233 40.9999C71.8671 40.5597 70.5803 40.0178 69.4627 39.3744C68.379 38.6971 67.7356 37.7489 67.5324 36.5297L67.634 36.1741C69.0902 35.6662 70.4787 35.0397 71.7994 34.2946C73.154 33.5496 74.424 32.686 75.6092 31.7039C74.0176 31.4669 72.646 30.925 71.4946 30.0784C70.3432 29.2318 69.4796 28.1989 68.9039 26.9797C68.3621 25.7267 68.1928 24.3721 68.396 22.9159C68.6669 21.3243 69.3611 19.885 70.4787 18.5981C71.5962 17.2774 73.0016 16.2276 74.6949 15.4487C76.3881 14.6359 78.183 14.2295 80.0794 14.2295C81.5356 14.2295 82.8564 14.4666 84.0416 14.9407C85.2608 15.4148 86.2768 16.0752 87.0895 16.9218C87.9361 15.8381 88.8844 14.8899 89.9342 14.0771C91.0179 13.2305 92.0508 12.8072 93.0328 12.8072C93.8117 12.8072 94.4382 13.095 94.9124 13.6707C95.4203 14.2465 95.6066 14.9576 95.4711 15.8043C95.3018 16.7186 94.9124 17.4636 94.3028 18.0394C93.6932 18.5812 93.0498 18.8521 92.3725 18.8521C91.7629 18.8521 91.2888 18.7167 90.9501 18.4457C90.6115 18.1409 90.3067 17.8362 90.0358 17.5314C89.7649 17.1927 89.4262 17.0234 89.0198 17.0234C88.6134 17.0234 88.1732 17.2097 87.6991 17.5822C88.3087 18.3611 88.7489 19.2246 89.0198 20.1729C89.2907 21.1211 89.3415 22.1201 89.1722 23.1699C88.9013 24.7616 88.1901 26.2178 87.0387 27.5385C85.9212 28.8593 84.4988 29.9091 82.7717 30.688C81.0784 31.4669 79.2667 31.8563 77.3363 31.8563C77.167 31.8563 76.9977 31.8563 76.8284 31.8563C76.6252 32.0934 76.4389 32.3474 76.2696 32.6183C76.1341 32.8553 76.0495 33.0924 76.0156 33.3295C75.9479 33.8374 76.2527 34.2608 76.93 34.5994C77.6073 34.9042 78.4878 35.192 79.5714 35.463C80.689 35.7339 81.8573 36.0387 83.0765 36.3773C84.3295 36.716 85.4809 37.1562 86.5307 37.6981C87.6144 38.2399 88.4441 38.968 89.0198 39.8824C89.6294 40.7629 89.8326 41.8804 89.6294 43.235C89.3585 45.0637 88.5288 46.6215 87.1403 47.9084C85.7518 49.2291 83.9908 50.2282 81.8573 50.9055C79.7577 51.5828 77.421 51.9214 74.8473 51.9214ZM75.5584 22.9159C75.2536 25.0494 75.2706 26.7766 75.6092 28.0973C75.9479 29.3842 76.6252 30.0276 77.6411 30.0276C78.691 30.0276 79.5884 29.418 80.3334 28.1989C81.1123 26.9797 81.6542 25.3034 81.9589 23.1699C82.2976 21.0364 82.2976 19.3262 81.9589 18.0394C81.6542 16.7186 80.943 16.0582 79.8254 16.0582C78.7418 16.0582 77.8443 16.6678 77.1332 17.887C76.422 19.1061 75.8971 20.7824 75.5584 22.9159ZM69.1579 46.0289C68.9547 47.3158 69.4458 48.2979 70.6311 48.9752C71.8163 49.6863 73.5943 50.008 75.9648 49.9403C78.0645 49.8726 79.7408 49.5339 80.9938 48.9244C82.2807 48.3148 83.0088 47.4851 83.1781 46.4353C83.3135 45.3855 82.9749 44.5558 82.1621 43.9462C81.3832 43.3705 80.3334 42.8964 79.0127 42.5238C77.7258 42.1513 76.3712 41.7788 74.9489 41.4063C73.0524 41.8127 71.647 42.4223 70.7327 43.235C69.8183 44.0816 69.2934 45.0129 69.1579 46.0289Z" fill="black"/>
<path d="M111.524 33.2787C110.779 35.1074 109.797 36.6482 108.578 37.9013C107.359 39.1543 106.004 40.1194 104.514 40.7967C103.024 41.4402 101.534 41.7619 100.044 41.7619C98.1815 41.7619 96.4544 41.2708 94.8628 40.2887C93.2711 39.3067 92.0689 37.8505 91.2561 35.9201C90.4772 33.9898 90.3079 31.5854 90.7481 28.7069C91.1545 25.9977 92.0689 23.5424 93.4912 21.3412C94.9474 19.14 96.7423 17.379 98.8758 16.0582C101.009 14.7375 103.346 14.0771 105.886 14.0771C107.545 14.0771 109.001 14.3989 110.254 15.0423C111.541 15.6857 112.506 16.5662 113.15 17.6838C113.793 18.8013 113.997 20.0713 113.759 21.4936C113.489 23.3223 112.608 24.7954 111.118 25.913C109.628 27.0305 107.732 27.8772 105.429 28.4529C103.126 29.0286 100.603 29.435 97.8598 29.672C97.9953 32.0426 98.6218 33.7866 99.7393 34.9042C100.891 36.0217 102.347 36.5805 104.108 36.5805C105.429 36.5805 106.699 36.2757 107.918 35.6662C109.137 35.0227 110.17 34.1253 111.016 32.9739L111.524 33.2787ZM98.1138 25.4558C97.9445 26.4379 97.8598 27.3523 97.8598 28.1989C100.603 27.8264 102.669 27.0983 104.057 26.0146C105.479 24.9309 106.377 23.3223 106.749 21.1888C106.986 19.7665 106.868 18.5812 106.394 17.633C105.954 16.6509 105.209 16.1598 104.159 16.1598C102.973 16.1598 101.788 16.9049 100.603 18.3949C99.4515 19.885 98.6218 22.2386 98.1138 25.4558Z" fill="black"/>
<path d="M117.998 41.7111C117.118 41.7111 116.305 41.5418 115.56 41.2031C114.815 40.8645 114.256 40.3226 113.884 39.5776C113.511 38.7987 113.427 37.7658 113.63 36.4789L117.795 9.75933C117.964 8.74337 117.897 7.79515 117.592 6.91466C117.321 6.0003 116.762 5.35686 115.916 4.98434L116.017 4.47637C117.169 4.40864 118.371 4.18851 119.624 3.81599C120.877 3.44348 122.079 2.96937 123.23 2.39366C124.382 1.81795 125.347 1.20838 126.126 0.564941H126.685L121.148 36.0217C120.978 36.9361 121.046 37.6473 121.351 38.1552C121.69 38.6294 122.13 38.8664 122.672 38.8664C123.281 38.8664 123.908 38.6294 124.551 38.1552L124.704 38.8156C123.959 39.73 122.943 40.4411 121.656 40.9491C120.369 41.4571 119.15 41.7111 117.998 41.7111Z" fill="black"/>
<path d="M130.154 41.7111C129.274 41.7111 128.461 41.5418 127.716 41.2031C126.971 40.8645 126.412 40.3226 126.039 39.5776C125.667 38.7987 125.582 37.7658 125.785 36.4789L129.951 9.75933C130.12 8.74337 130.052 7.79515 129.748 6.91466C129.477 6.0003 128.918 5.35686 128.071 4.98434L128.173 4.47637C129.324 4.40864 130.527 4.18851 131.78 3.81599C133.033 3.44348 134.235 2.96937 135.386 2.39366C136.538 1.81795 137.503 1.20838 138.282 0.564941H138.84L133.304 36.0217C133.134 36.9361 133.202 37.6473 133.507 38.1552C133.845 38.6294 134.286 38.8664 134.827 38.8664C135.437 38.8664 136.064 38.6294 136.707 38.1552L136.859 38.8156C136.114 39.73 135.098 40.4411 133.811 40.9491C132.525 41.4571 131.305 41.7111 130.154 41.7111Z" fill="black"/>
<path d="M137.332 29.8244C137.636 27.7248 138.246 25.7437 139.16 23.8811C140.075 21.9846 141.209 20.3083 142.564 18.8521C143.952 17.3621 145.51 16.2106 147.237 15.3979C148.964 14.5512 150.793 14.1279 152.723 14.1279C154.146 14.1279 155.297 14.365 156.178 14.8391C157.058 15.3132 157.735 15.9058 158.209 16.617C158.717 17.3282 159.09 18.0224 159.327 18.6997L162.578 14.3311H163.34L159.937 36.0217C159.801 36.9361 159.886 37.6473 160.191 38.1552C160.495 38.6294 160.919 38.8664 161.461 38.8664C162.172 38.8664 162.883 38.6294 163.594 38.1552L163.797 38.8156C163.018 39.73 161.969 40.4411 160.648 40.9491C159.361 41.4571 158.108 41.7111 156.889 41.7111C156.042 41.7111 155.263 41.5418 154.552 41.2031C153.841 40.8983 153.299 40.3734 152.927 39.6284C152.554 38.8833 152.469 37.8674 152.673 36.5805C152.673 36.5805 152.689 36.5467 152.723 36.4789H152.673C151.927 37.3933 151.064 38.2568 150.082 39.0696C149.1 39.8485 148.05 40.4919 146.932 40.9999C145.849 41.474 144.765 41.7111 143.681 41.7111C142.09 41.7111 140.752 41.1862 139.668 40.1364C138.618 39.0527 137.873 37.6134 137.433 35.8186C136.993 34.0237 136.959 32.0257 137.332 29.8244ZM148.71 37.1393C149.997 37.1393 151.352 36.5297 152.774 35.3106L155.212 19.5633C155.382 18.5473 155.246 17.7007 154.806 17.0234C154.4 16.3461 153.773 16.0074 152.927 16.0074C151.775 16.0074 150.674 16.5324 149.625 17.5822C148.575 18.632 147.66 20.0205 146.882 21.7476C146.103 23.4408 145.561 25.2865 145.256 27.2845C144.748 30.5356 144.816 32.9908 145.459 34.6502C146.103 36.3096 147.186 37.1393 148.71 37.1393Z" fill="black"/>
<path d="M164.275 40.9999L167.069 22.9667C167.272 21.6121 167.238 20.5792 166.967 19.8681C166.696 19.123 166.121 18.5643 165.24 18.1917L165.291 17.6838C166.442 17.616 167.628 17.3959 168.847 17.0234C170.1 16.6509 171.285 16.1768 172.403 15.6011C173.554 15.0254 174.519 14.4158 175.298 13.7723H175.806L175.146 17.9378C174.976 19.1569 174.773 20.1051 174.536 20.7824L174.689 20.8332C175.467 19.6479 176.466 18.5473 177.686 17.5314C178.905 16.4816 180.175 15.6519 181.495 15.0423C182.816 14.3989 184.035 14.0771 185.153 14.0771C186.745 14.0771 187.913 14.5851 188.658 15.6011C189.403 16.617 189.64 17.9716 189.369 19.6649L186.778 36.0217C186.643 36.9361 186.728 37.6473 187.032 38.1552C187.337 38.6294 187.76 38.8664 188.302 38.8664C188.607 38.8664 188.946 38.8156 189.318 38.714C189.691 38.6124 190.063 38.4262 190.436 38.1552L190.639 38.8156C189.86 39.73 188.793 40.4411 187.439 40.9491C186.118 41.4571 184.865 41.7111 183.68 41.7111C182.799 41.7111 181.986 41.5418 181.241 41.2031C180.53 40.8983 179.988 40.3734 179.616 39.6284C179.277 38.8495 179.21 37.8335 179.413 36.5805L181.648 22.3572C182.02 20.0882 181.479 18.9368 180.022 18.9029C179.311 18.9029 178.448 19.2246 177.432 19.8681C176.416 20.4776 175.4 21.4089 174.384 22.6619L171.539 40.9999H164.275Z" fill="black"/>
</svg>
