<svg width="191" height="52" viewBox="0 0 191 52" fill="none" xmlns="http://www.w3.org/2000/svg">
<path d="M21.1826 40.435H13.9694L16.9156 21.5382C17.2543 19.4386 16.7124 18.3718 15.2901 18.338C14.6467 18.338 13.8508 18.6258 12.9026 19.2015C11.9883 19.7772 11.057 20.6577 10.1087 21.843L7.26407 40.435H0L2.79387 22.4018C3.03093 21.0472 2.99706 20.0143 2.69228 19.3031C2.42136 18.5581 1.84565 17.9993 0.965156 17.6268L1.01595 17.1188C2.16737 17.0511 3.35265 16.831 4.57179 16.4585C5.8248 16.0859 7.01008 15.6118 8.12763 15.0361C9.24518 14.4604 10.1934 13.8508 10.9723 13.2074H11.5311L10.8199 17.3728C10.6845 18.4565 10.5151 19.3201 10.3119 19.9635L10.4135 20.0143C11.1924 18.8967 12.1576 17.8469 13.309 16.8648C14.4604 15.8489 15.6457 15.0361 16.8648 14.4265C18.1178 13.817 19.2693 13.5122 20.3191 13.5122C21.9107 13.5122 23.0622 14.0202 23.7733 15.0361C24.5184 16.0521 24.7554 17.3728 24.4845 18.9983L24.3321 20.0143H24.3829C25.1279 18.8967 26.0762 17.8469 27.2276 16.8648C28.4129 15.8489 29.6151 15.0361 30.8342 14.4265C32.0872 13.817 33.2386 13.5122 34.2885 13.5122C35.8801 13.5122 37.0315 14.0371 37.7427 15.0869C38.4539 16.1029 38.6909 17.4405 38.4539 19.0999L35.8632 35.4568C35.7277 36.3712 35.8124 37.0823 36.1172 37.5903C36.422 38.0644 36.8453 38.3015 37.3871 38.3015C37.6919 38.3015 38.0305 38.2507 38.4031 38.1491C38.7756 38.0475 39.1481 37.8612 39.5206 37.5903L39.7238 38.2507C38.9449 39.165 37.8782 39.8762 36.5235 40.3842C35.2028 40.8922 33.9498 41.1461 32.7645 41.1461C31.4776 41.1461 30.377 40.7736 29.4627 40.0286C28.5483 39.2497 28.2435 37.912 28.5483 36.0156L30.7834 21.7922C31.1221 19.4894 30.6141 18.338 29.2595 18.338C28.616 18.338 27.8202 18.6258 26.872 19.2015C25.9238 19.7772 24.9755 20.6577 24.0273 21.843L21.1826 40.435Z" fill="white"/>
<path d="M40.0302 29.2595C40.335 27.1598 40.9445 25.1787 41.8589 23.3161C42.7733 21.4197 43.9077 19.7434 45.2623 18.2872C46.6508 16.7971 48.2086 15.6457 49.9357 14.8329C51.6629 13.9863 53.4916 13.563 55.4219 13.563C56.8442 13.563 57.9956 13.8 58.8761 14.2742C59.7566 14.7483 60.4339 15.3409 60.908 16.0521C61.416 16.7632 61.7885 17.4575 62.0256 18.1348L65.2766 13.7662H66.0386L62.6352 35.4568C62.4997 36.3712 62.5844 37.0823 62.8891 37.5903C63.1939 38.0644 63.6172 38.3015 64.1591 38.3015C64.8703 38.3015 65.5814 38.0644 66.2926 37.5903L66.4958 38.2507C65.7169 39.165 64.6671 39.8762 63.3463 40.3842C62.0594 40.8922 60.8064 41.1461 59.5873 41.1461C58.7407 41.1461 57.9618 40.9768 57.2506 40.6382C56.5394 40.3334 55.9976 39.8085 55.6251 39.0634C55.2526 38.3184 55.1679 37.3025 55.3711 36.0156C55.3711 36.0156 55.388 35.9817 55.4219 35.914H55.3711C54.6261 36.8283 53.7625 37.6919 52.7804 38.5047C51.7983 39.2836 50.7485 39.927 49.6309 40.435C48.5473 40.9091 47.4636 41.1461 46.3799 41.1461C44.7882 41.1461 43.4506 40.6212 42.3669 39.5714C41.3171 38.4877 40.572 37.0485 40.1318 35.2536C39.6915 33.4588 39.6577 31.4607 40.0302 29.2595ZM51.4089 36.5743C52.6957 36.5743 54.0503 35.9648 55.4727 34.7456L57.911 18.9983C58.0803 17.9824 57.9448 17.1358 57.5046 16.4585C57.0982 15.7812 56.4717 15.4425 55.6251 15.4425C54.4737 15.4425 53.373 15.9674 52.3232 17.0172C51.2734 18.0671 50.359 19.4555 49.5801 21.1826C48.8012 22.8759 48.2594 24.7216 47.9546 26.7196C47.4466 29.9706 47.5144 32.4259 48.1578 34.0853C48.8012 35.7447 49.8849 36.5743 51.4089 36.5743Z" fill="white"/>
<path d="M74.3393 51.3565C72.9847 51.3565 71.5962 51.2549 70.1739 51.0517C68.7854 50.8824 67.5324 50.5776 66.4148 50.1373C65.2634 49.731 64.366 49.1722 63.7225 48.461C63.0791 47.7498 62.8421 46.8524 63.0114 45.7687C63.1468 44.9221 63.6718 44.1432 64.5861 43.432C65.5005 42.7547 66.6688 42.1452 68.0911 41.6033C69.5473 41.0953 71.1221 40.7059 72.8153 40.435C71.3591 39.9947 70.0723 39.4529 68.9547 38.8094C67.871 38.1321 67.2276 37.1839 67.0244 35.9648L67.126 35.6092C68.5822 35.1012 69.9707 34.4747 71.2914 33.7297C72.646 32.9846 73.916 32.1211 75.1012 31.139C73.5096 30.9019 72.138 30.3601 70.9866 29.5135C69.8352 28.6668 68.9716 27.634 68.3959 26.4148C67.8541 25.1618 67.6848 23.8072 67.888 22.351C68.1589 20.7593 68.8531 19.3201 69.9707 18.0332C71.0882 16.7124 72.4936 15.6626 74.1869 14.8837C75.8801 14.071 77.675 13.6646 79.5714 13.6646C81.0276 13.6646 82.3484 13.9016 83.5337 14.3758C84.7528 14.8499 85.7688 15.5102 86.5815 16.3569C87.4281 15.2732 88.3764 14.325 89.4262 13.5122C90.5099 12.6656 91.5428 12.2422 92.5248 12.2422C93.3037 12.2422 93.9303 12.5301 94.4044 13.1058C94.9123 13.6815 95.0986 14.3927 94.9631 15.2393C94.7938 16.1537 94.4044 16.8987 93.7948 17.4744C93.1852 18.0163 92.5418 18.2872 91.8645 18.2872C91.2549 18.2872 90.7808 18.1517 90.4421 17.8808C90.1035 17.576 89.7987 17.2712 89.5278 16.9664C89.2569 16.6278 88.9182 16.4585 88.5118 16.4585C88.1054 16.4585 87.6652 16.6447 87.1911 17.0172C87.8007 17.7961 88.2409 18.6597 88.5118 19.6079C88.7827 20.5561 88.8335 21.5552 88.6642 22.605C88.3933 24.1966 87.6821 25.6528 86.5307 26.9736C85.4132 28.2943 83.9908 29.3441 82.2637 30.123C80.5705 30.9019 78.7587 31.2914 76.8284 31.2914C76.659 31.2914 76.4897 31.2914 76.3204 31.2914C76.1172 31.5284 75.9309 31.7824 75.7616 32.0534C75.6261 32.2904 75.5415 32.5275 75.5076 32.7645C75.4399 33.2725 75.7447 33.6958 76.422 34.0345C77.0993 34.3393 77.9798 34.6271 79.0635 34.898C80.181 35.1689 81.3494 35.4737 82.5685 35.8124C83.8215 36.151 84.9729 36.5913 86.0227 37.1331C87.1064 37.675 87.9361 38.4031 88.5118 39.3174C89.1214 40.1979 89.3246 41.3155 89.1214 42.6701C88.8505 44.4988 88.0208 46.0566 86.6323 47.3435C85.2438 48.6642 83.4829 49.6632 81.3493 50.3405C79.2497 51.0178 76.913 51.3565 74.3393 51.3565ZM75.0504 22.351C74.7457 24.4845 74.7626 26.2116 75.1012 27.5324C75.4399 28.8192 76.1172 29.4627 77.1331 29.4627C78.183 29.4627 79.0804 28.8531 79.8254 27.634C80.6043 26.4148 81.1462 24.7385 81.451 22.605C81.7896 20.4715 81.7896 18.7613 81.451 17.4744C81.1462 16.1537 80.435 15.4933 79.3174 15.4933C78.2338 15.4933 77.3363 16.1029 76.6252 17.322C75.914 18.5412 75.3891 20.2175 75.0504 22.351ZM68.6499 45.4639C68.4467 46.7508 68.9378 47.7329 70.1231 48.4102C71.3083 49.1214 73.0863 49.4431 75.4568 49.3754C77.5565 49.3076 79.2328 48.969 80.4858 48.3594C81.7727 47.7498 82.5008 46.9202 82.6701 45.8703C82.8056 44.8205 82.4669 43.9908 81.6541 43.3812C80.8752 42.8055 79.8254 42.3314 78.5047 41.9589C77.2178 41.5864 75.8632 41.2139 74.4409 40.8414C72.5444 41.2477 71.139 41.8573 70.2247 42.6701C69.3103 43.5167 68.7854 44.448 68.6499 45.4639Z" fill="white"/>
<path d="M111.016 32.7137C110.271 34.5424 109.289 36.0833 108.07 37.3363C106.851 38.5893 105.496 39.5545 104.006 40.2318C102.516 40.8752 101.026 41.1969 99.5361 41.1969C97.6735 41.1969 95.9464 40.7059 94.3548 39.7238C92.7631 38.7417 91.5609 37.2855 90.7481 35.3552C89.9692 33.4249 89.7999 31.0205 90.2401 28.1419C90.6465 25.4327 91.5609 22.9775 92.9832 20.7763C94.4394 18.575 96.2343 16.814 98.3678 15.4933C100.501 14.1726 102.838 13.5122 105.378 13.5122C107.037 13.5122 108.493 13.8339 109.746 14.4773C111.033 15.1208 111.998 16.0013 112.642 17.1188C113.285 18.2364 113.489 19.5063 113.252 20.9287C112.981 22.7574 112.1 24.2305 110.61 25.3481C109.12 26.4656 107.224 27.3122 104.921 27.8879C102.618 28.4636 100.095 28.87 97.3518 29.1071C97.4873 31.4776 98.1138 33.2217 99.2313 34.3392C100.383 35.4568 101.839 36.0156 103.6 36.0156C104.921 36.0156 106.191 35.7108 107.41 35.1012C108.629 34.4578 109.662 33.5604 110.508 32.4089L111.016 32.7137ZM97.6058 24.8909C97.4365 25.873 97.3518 26.7873 97.3518 27.634C100.095 27.2614 102.161 26.5333 103.549 25.4497C104.971 24.366 105.869 22.7574 106.241 20.6239C106.478 19.2015 106.36 18.0163 105.886 17.068C105.446 16.0859 104.701 15.5949 103.651 15.5949C102.465 15.5949 101.28 16.3399 100.095 17.83C98.9435 19.3201 98.1138 21.6737 97.6058 24.8909Z" fill="white"/>
<path d="M117.49 41.1461C116.61 41.1461 115.797 40.9768 115.052 40.6382C114.307 40.2995 113.748 39.7577 113.376 39.0126C113.003 38.2337 112.919 37.2009 113.122 35.914L117.287 9.19439C117.456 8.17843 117.389 7.23021 117.084 6.34972C116.813 5.43536 116.254 4.79192 115.408 4.4194L115.509 3.91142C116.661 3.84369 117.863 3.62357 119.116 3.25105C120.369 2.87854 121.571 2.40443 122.722 1.82872C123.874 1.25301 124.839 0.643439 125.618 0H126.177L120.64 35.4568C120.47 36.3712 120.538 37.0823 120.843 37.5903C121.182 38.0644 121.622 38.3015 122.164 38.3015C122.773 38.3015 123.4 38.0644 124.043 37.5903L124.196 38.2507C123.451 39.165 122.435 39.8762 121.148 40.3842C119.861 40.8922 118.642 41.1461 117.49 41.1461Z" fill="white"/>
<path d="M129.646 41.1461C128.766 41.1461 127.953 40.9768 127.208 40.6382C126.463 40.2995 125.904 39.7577 125.531 39.0126C125.159 38.2337 125.074 37.2009 125.277 35.914L129.443 9.19439C129.612 8.17843 129.544 7.23021 129.24 6.34972C128.969 5.43536 128.41 4.79192 127.563 4.4194L127.665 3.91142C128.816 3.84369 130.019 3.62357 131.272 3.25105C132.525 2.87854 133.727 2.40443 134.878 1.82872C136.03 1.25301 136.995 0.643439 137.774 0H138.332L132.796 35.4568C132.626 36.3712 132.694 37.0823 132.999 37.5903C133.337 38.0644 133.778 38.3015 134.319 38.3015C134.929 38.3015 135.556 38.0644 136.199 37.5903L136.351 38.2507C135.606 39.165 134.59 39.8762 133.303 40.3842C132.017 40.8922 130.797 41.1461 129.646 41.1461Z" fill="white"/>
<path d="M136.824 29.2595C137.128 27.1598 137.738 25.1787 138.652 23.3161C139.567 21.4197 140.701 19.7434 142.056 18.2872C143.444 16.7971 145.002 15.6457 146.729 14.8329C148.456 13.9863 150.285 13.563 152.215 13.563C153.638 13.563 154.789 13.8 155.67 14.2742C156.55 14.7483 157.227 15.3409 157.701 16.0521C158.209 16.7632 158.582 17.4575 158.819 18.1348L162.07 13.7662H162.832L159.429 35.4568C159.293 36.3712 159.378 37.0823 159.683 37.5903C159.987 38.0644 160.411 38.3015 160.953 38.3015C161.664 38.3015 162.375 38.0644 163.086 37.5903L163.289 38.2507C162.51 39.165 161.461 39.8762 160.14 40.3842C158.853 40.8922 157.6 41.1461 156.381 41.1461C155.534 41.1461 154.755 40.9768 154.044 40.6382C153.333 40.3334 152.791 39.8085 152.419 39.0634C152.046 38.3184 151.961 37.3025 152.165 36.0156C152.165 36.0156 152.181 35.9817 152.215 35.914H152.165C151.419 36.8283 150.556 37.6919 149.574 38.5047C148.592 39.2836 147.542 39.927 146.424 40.435C145.341 40.9091 144.257 41.1461 143.173 41.1461C141.582 41.1461 140.244 40.6212 139.16 39.5714C138.11 38.4877 137.365 37.0485 136.925 35.2536C136.485 33.4588 136.451 31.4607 136.824 29.2595ZM148.202 36.5743C149.489 36.5743 150.844 35.9648 152.266 34.7456L154.704 18.9983C154.874 17.9824 154.738 17.1358 154.298 16.4585C153.892 15.7812 153.265 15.4425 152.419 15.4425C151.267 15.4425 150.166 15.9674 149.117 17.0172C148.067 18.0671 147.152 19.4555 146.374 21.1826C145.595 22.8759 145.053 24.7216 144.748 26.7196C144.24 29.9706 144.308 32.4259 144.951 34.0853C145.595 35.7447 146.678 36.5743 148.202 36.5743Z" fill="white"/>
<path d="M163.767 40.435L166.561 22.4018C166.764 21.0472 166.73 20.0143 166.459 19.3031C166.188 18.5581 165.613 17.9993 164.732 17.6268L164.783 17.1188C165.934 17.0511 167.12 16.831 168.339 16.4585C169.592 16.0859 170.777 15.6118 171.895 15.0361C173.046 14.4604 174.011 13.8508 174.79 13.2074H175.298L174.638 17.3728C174.468 18.592 174.265 19.5402 174.028 20.2175L174.181 20.2683C174.959 19.083 175.958 17.9824 177.178 16.9664C178.397 15.9166 179.667 15.0869 180.987 14.4773C182.308 13.8339 183.527 13.5122 184.645 13.5122C186.237 13.5122 187.405 14.0202 188.15 15.0361C188.895 16.0521 189.132 17.4067 188.861 19.0999L186.27 35.4568C186.135 36.3712 186.22 37.0823 186.524 37.5903C186.829 38.0644 187.252 38.3015 187.794 38.3015C188.099 38.3015 188.438 38.2507 188.81 38.1491C189.183 38.0475 189.555 37.8612 189.928 37.5903L190.131 38.2507C189.352 39.165 188.285 39.8762 186.931 40.3842C185.61 40.8922 184.357 41.1461 183.172 41.1461C182.291 41.1461 181.478 40.9768 180.733 40.6382C180.022 40.3334 179.48 39.8085 179.108 39.0634C178.769 38.2845 178.702 37.2686 178.905 36.0156L181.14 21.7922C181.512 19.5233 180.971 18.3718 179.514 18.338C178.803 18.338 177.94 18.6597 176.924 19.3031C175.908 19.9127 174.892 20.844 173.876 22.097L171.031 40.435H163.767Z" fill="white"/>
</svg>
