<svg width="48" height="34" viewBox="0 0 48 34" fill="none" xmlns="http://www.w3.org/2000/svg">
<path d="M26.4797 32.8493H16.6951L20.113 10.8049C20.5151 8.37539 20.0013 7.12083 18.5716 7.04118C17.9908 7.00135 17.2536 7.10092 16.36 7.33988C15.4665 7.53902 14.6399 7.85764 13.8804 8.29574L10.0604 32.8493H0.275879L3.62675 11.2828C3.85014 9.72952 3.80546 8.51479 3.49271 7.63859C3.17996 6.76239 2.57681 6.08532 1.68324 5.6074V5.42817C3.15762 5.38835 4.72136 5.1693 6.37446 4.77102C8.02755 4.33292 9.61363 3.77534 11.1327 3.09828C12.6517 2.38139 13.8804 1.62467 14.8186 0.828125H15.0197L14.4836 4.23336C14.4389 4.79094 14.3495 5.36843 14.2155 5.96584C14.0815 6.52342 13.9698 6.96152 13.8804 7.28014L14.0144 7.33988C14.908 6.50351 16.025 5.6074 17.3653 4.65154C18.7503 3.69569 20.18 2.87923 21.6544 2.20217C23.1735 1.5251 24.5362 1.18657 25.7425 1.18657C27.5743 1.18657 28.8923 1.74415 29.6965 2.85931C30.5007 3.97448 30.7464 5.42817 30.4337 7.2204V7.28014L30.5677 7.33988C31.4613 6.50351 32.5782 5.6074 33.9186 4.65154C35.3036 3.69569 36.7333 2.87923 38.2077 2.20217C39.6821 1.5251 41.0224 1.18657 42.2287 1.18657C44.0605 1.2264 45.3562 1.82381 46.1157 2.9788C46.8753 4.09396 47.121 5.58748 46.8529 7.45937L43.7031 27.5921C43.5691 28.5877 43.7031 29.3644 44.1052 29.9219C44.5073 30.4397 45.0211 30.6986 45.6466 30.6986C46.3168 30.6986 47.0093 30.4994 47.7242 30.1012V30.5791C46.7859 31.5748 45.4902 32.3514 43.8372 32.909C42.2287 33.4666 40.7097 33.7454 39.28 33.7454C37.6269 33.7454 36.2195 33.3471 35.0579 32.5505C33.9409 31.7142 33.5388 30.2605 33.8516 28.1895L36.5323 10.8049C36.8897 8.29574 36.4206 7.04118 35.1249 7.04118C34.5441 7.04118 33.7845 7.16066 32.8463 7.39962C31.9527 7.59876 31.1039 7.91738 30.2996 8.35548L26.4797 32.8493Z" fill="white"/>
</svg>
